<?xml version="1.0" standalone="no"?>
<!DOCTYPE svg PUBLIC "-//W3C//DTD SVG 20010904//EN"
 "http://www.w3.org/TR/2001/REC-SVG-20010904/DTD/svg10.dtd">
<svg version="1.0" xmlns="http://www.w3.org/2000/svg"
 width="300.000000pt" height="288.000000pt" viewBox="0 0 300.000000 288.000000"
 preserveAspectRatio="xMidYMid meet">
<metadata>
Created by potrace 1.10, written by Peter Selinger 2001-2011
</metadata>
<g transform="translate(0.000000,288.000000) scale(0.100000,-0.100000)"
fill="#000000" stroke="none">
<path d="M1350 2680 c-477 -59 -842 -446 -867 -921 -7 -144 7 -245 52 -374 42
-117 105 -229 175 -308 29 -31 48 -57 43 -57 -4 -1 -96 -2 -203 -3 -165 -2
-195 -4 -195 -17 0 -13 133 -14 1100 -11 646 1 1104 6 1110 12 26 25 -18 31
-209 28 -108 -2 -196 -1 -196 2 0 3 12 16 26 30 40 36 123 163 160 244 61 132
77 212 78 380 1 177 -5 225 -40 331 -107 322 -396 580 -724 647 -98 20 -228
27 -310 17z m260 -46 c102 -18 246 -71 335 -125 295 -177 473 -518 452 -863
-8 -128 -35 -224 -97 -351 -46 -94 -168 -263 -197 -273 -10 -3 -13 27 -13 125
-1 139 -5 154 -58 198 -18 15 -40 44 -49 64 -9 20 -19 39 -21 44 -7 14 20 7
45 -13 32 -25 91 -25 153 -2 55 21 60 46 10 50 -91 7 -151 52 -175 130 -34
114 -50 144 -99 189 -28 24 -61 50 -76 58 -28 15 -158 31 -350 44 -140 9 -221
34 -268 81 -16 15 -45 70 -66 121 -22 52 -51 108 -66 124 -15 17 -31 44 -34
60 -13 57 -47 115 -67 115 -20 0 -27 -19 -31 -85 -3 -33 -7 -41 -25 -43 -12
-2 -35 -19 -50 -38 -35 -45 -74 -83 -109 -110 l-27 -20 18 -37 c26 -56 62 -80
105 -72 19 4 50 16 68 27 17 11 33 16 34 11 1 -4 2 -91 3 -193 1 -102 5 -229
10 -283 5 -74 3 -130 -10 -227 -25 -192 -34 -220 -80 -251 -21 -15 -42 -36
-46 -48 -5 -11 -13 -21 -18 -21 -18 0 -116 118 -164 198 -81 134 -137 336
-137 497 0 192 80 416 206 573 218 272 557 404 894 346z m-600 -350 c8 -28 25
-61 37 -73 12 -13 40 -67 63 -120 23 -53 53 -108 67 -123 15 -15 59 -41 99
-58 69 -28 89 -31 289 -45 l214 -14 51 -33 c63 -41 78 -73 78 -168 0 -47 10
-112 26 -174 23 -90 30 -103 76 -152 l50 -53 0 -125 0 -126 -40 0 c-45 0 -53
16 -16 30 35 13 38 22 25 102 -13 81 -39 127 -109 193 -23 22 -57 63 -75 90
-18 28 -49 69 -68 93 -58 69 -230 202 -262 202 -17 0 1 -21 40 -46 53 -33 56
-44 14 -44 -18 0 -67 -20 -119 -49 -70 -39 -107 -52 -174 -63 -99 -17 -97 -18
-66 64 23 60 24 68 10 68 -13 0 -33 -42 -64 -132 -21 -65 -27 -108 -36 -260
-6 -101 -13 -198 -16 -215 -6 -31 -9 -33 -50 -33 -57 0 -64 15 -17 37 l38 18
3 210 c2 131 -1 230 -8 263 -19 89 -30 60 -24 -65 7 -135 -7 -207 -73 -373
-38 -95 -38 -95 -73 -95 -48 0 -50 15 -6 46 51 34 62 57 80 164 42 252 46 331
20 429 -13 50 -15 85 -9 196 13 227 10 244 -48 221 -112 -46 -109 -46 -139
-12 -37 41 -35 54 7 74 21 10 46 35 63 62 18 30 39 49 63 59 39 16 53 38 43
69 -4 13 -2 18 7 15 8 -3 20 -27 29 -54z m955 -669 c18 -69 59 -117 117 -137
44 -16 35 -32 -14 -24 -84 14 -138 89 -138 193 0 53 16 38 35 -32z m-301 -99
c39 -66 76 -112 125 -157 61 -57 70 -69 75 -109 4 -25 3 -74 -1 -110 -7 -56
-11 -65 -30 -68 -12 -2 -28 -13 -36 -25 -15 -23 -16 -23 -340 -26 l-326 -3 4
34 c3 18 9 65 15 105 5 39 10 105 11 145 0 40 4 95 7 123 l7 50 85 12 c68 10
107 24 195 68 61 30 120 55 132 55 17 0 34 -21 77 -94z m114 -46 c25 -36 77
-99 115 -140 49 -54 67 -81 63 -95 -2 -11 -12 -47 -21 -80 -9 -33 -21 -77 -26
-97 -9 -35 -13 -38 -44 -38 -19 0 -35 5 -35 10 0 6 9 10 20 10 29 0 48 46 50
125 4 128 7 120 -81 209 -76 76 -149 178 -149 207 0 19 56 -38 108 -111z
m-728 -315 c0 -59 -2 -67 -22 -74 -35 -14 -39 0 -17 59 11 30 22 61 24 68 10
27 15 9 15 -53z m948 0 c0 -24 3 -49 7 -55 3 -5 -5 -15 -19 -21 -14 -7 -26
-21 -28 -32 -2 -11 -9 -22 -17 -25 -10 -3 -12 2 -8 19 34 131 44 159 54 159 7
0 11 -17 11 -45z"/>
<path d="M347 844 c-96 -23 -113 -39 -83 -79 13 -18 14 -18 44 3 32 24 62 29
62 11 0 -6 -6 -25 -14 -42 -49 -110 -126 -294 -126 -303 0 -6 11 -21 25 -34
19 -17 25 -20 29 -9 34 119 69 220 76 224 21 13 39 -11 55 -73 20 -76 46 -132
69 -151 13 -11 20 -11 41 3 l25 17 -24 32 c-26 36 -86 151 -86 167 0 5 9 10
20 10 36 0 97 38 119 73 74 120 -44 197 -232 151z m198 -36 c57 -26 36 -94
-39 -132 -40 -20 -126 -34 -126 -21 0 4 19 43 42 86 37 69 45 79 69 79 16 0
40 -5 54 -12z"/>
<path d="M1664 841 c-65 -30 -103 -98 -72 -129 18 -18 25 -15 32 13 7 26 69
95 86 95 17 0 12 -15 -56 -188 -74 -188 -74 -200 -4 -231 68 -30 160 -8 230
55 49 45 77 96 90 165 19 99 -11 174 -85 216 -52 30 -160 31 -221 4z m211 -29
c44 -26 67 -77 60 -132 -15 -101 -79 -192 -161 -226 -39 -16 -124 -19 -124 -4
0 22 73 198 111 268 l39 74 -30 11 c-16 6 -30 18 -30 25 0 19 93 8 135 -16z"/>
<path d="M2715 701 c-95 -57 -145 -191 -95 -254 39 -50 93 -42 154 22 40 41
26 51 -18 13 -47 -41 -76 -49 -93 -26 -23 31 -15 48 30 67 55 22 102 71 115
119 9 35 8 40 -15 58 -32 25 -40 25 -78 1z m57 -63 c-6 -23 -87 -108 -103
-108 -15 0 -10 20 12 56 38 61 104 99 91 52z"/>
<path d="M724 700 c-28 -11 -83 -76 -101 -119 -30 -72 -11 -161 37 -176 23 -7
86 24 117 57 12 13 29 40 38 60 19 47 21 138 2 138 -8 0 -24 11 -37 25 -26 27
-26 27 -56 15z m70 -107 c-2 -59 -29 -111 -75 -144 -40 -28 -59 -19 -59 28 0
47 33 115 72 148 46 39 63 30 62 -32z"/>
<path d="M1190 680 c-30 -42 -69 -134 -76 -180 -6 -34 -3 -45 16 -65 13 -14
29 -25 36 -25 14 0 84 75 84 90 0 6 5 10 11 10 32 0 -50 -167 -108 -221 -48
-44 -87 -58 -116 -40 -12 8 -23 9 -29 3 -12 -12 51 -42 89 -42 86 1 174 111
233 292 12 35 31 87 43 116 18 46 19 55 7 62 -29 18 -40 9 -74 -57 -42 -83
-106 -173 -125 -173 -10 0 -12 9 -7 38 8 44 60 159 84 185 14 16 14 19 2 27
-26 17 -48 11 -70 -20z"/>
<path d="M2345 666 c-31 -52 -75 -176 -75 -210 0 -33 10 -56 24 -56 6 1 28 25
49 54 42 59 124 142 132 135 2 -3 -5 -29 -17 -57 -18 -43 -20 -55 -10 -77 15
-32 37 -41 70 -29 32 11 41 34 13 34 -17 0 -21 6 -21 34 0 32 42 125 62 137
21 14 -1 39 -34 39 -27 0 -44 -13 -115 -86 -46 -47 -83 -81 -83 -75 0 6 18 40
40 76 44 72 47 86 24 109 -23 24 -31 20 -59 -28z"/>
<path d="M905 658 c4 -24 16 -65 26 -93 19 -49 19 -49 -3 -72 -11 -12 -38 -34
-59 -49 -22 -15 -39 -33 -39 -40 0 -21 9 -17 68 31 30 25 57 45 61 45 3 0 14
-18 24 -40 20 -44 25 -46 51 -27 16 12 16 16 -11 66 -21 41 -25 55 -15 59 21
7 102 122 102 143 0 11 -7 19 -17 19 -12 0 -30 -24 -53 -67 -19 -36 -39 -66
-45 -67 -5 0 -14 27 -19 61 -8 50 -13 63 -30 67 -44 12 -48 8 -41 -36z"/>
<path d="M2070 652 c-45 -47 -80 -119 -80 -167 0 -29 27 -65 50 -65 19 0 63
38 93 80 l18 25 -6 -36 c-7 -48 2 -69 30 -69 26 0 41 15 25 25 -16 10 -12 52
16 131 14 41 22 78 19 84 -12 20 -33 10 -46 -22 -20 -48 -106 -175 -124 -181
-65 -25 16 152 86 189 34 17 37 29 10 44 -32 17 -42 12 -91 -38z"/>
</g>
</svg>
