<?xml version="1.0" standalone="no"?>
<!DOCTYPE svg PUBLIC "-//W3C//DTD SVG 20010904//EN"
 "http://www.w3.org/TR/2001/REC-SVG-20010904/DTD/svg10.dtd">
<svg version="1.0" xmlns="http://www.w3.org/2000/svg"
 width="900.000000pt" height="225.000000pt" viewBox="0 0 900.000000 225.000000"
 preserveAspectRatio="xMidYMid meet">
<metadata>
Created by potrace 1.10, written by Peter Selinger 2001-2011
</metadata>
<g transform="translate(0.000000,225.000000) scale(0.100000,-0.100000)"
fill="#000000" stroke="none">
<path d="M4260 2129 c-99 -18 -223 -56 -275 -83 -16 -9 -33 -16 -37 -16 -17 0
-168 -97 -231 -148 -116 -94 -238 -238 -294 -349 -12 -23 -27 -50 -32 -60 -6
-10 -19 -38 -30 -63 -17 -41 -27 -69 -64 -195 -8 -26 -12 -119 -12 -260 0
-229 0 -228 52 -385 40 -123 132 -282 216 -375 20 -22 37 -45 37 -50 0 -7 -79
-10 -226 -10 -212 1 -226 0 -236 -18 -24 -45 -42 -45 1017 -37 550 5 1143 6
1317 2 335 -6 348 -4 348 39 0 23 15 22 -262 19 -126 -1 -228 2 -228 6 1 5 21
32 46 59 112 124 192 283 250 500 24 87 27 396 6 485 -40 164 -100 308 -178
426 -45 68 -163 203 -205 236 -19 14 -45 36 -59 48 -57 51 -224 142 -325 177
-208 72 -394 88 -595 52z m320 -49 c115 -17 185 -31 195 -41 5 -5 17 -9 28 -9
16 0 52 -14 137 -52 230 -105 453 -337 548 -568 13 -30 27 -64 32 -75 9 -20
24 -79 40 -150 26 -114 19 -464 -10 -500 -4 -5 -11 -26 -14 -45 -13 -69 -79
-212 -140 -305 -68 -103 -137 -185 -156 -185 -17 0 -18 6 -15 47 13 149 14
179 4 221 -9 36 -25 61 -66 102 -57 58 -90 115 -72 126 6 3 19 -2 31 -13 40
-36 216 -16 243 28 12 19 -16 37 -68 44 -52 7 -121 41 -150 73 -8 9 -25 50
-38 91 -12 41 -28 86 -35 100 -8 14 -14 31 -14 38 0 16 -121 133 -137 133 -7
0 -13 4 -13 8 0 21 -116 42 -290 52 -203 12 -320 25 -347 38 -10 5 -36 18 -58
28 -44 21 -105 80 -105 102 0 8 -6 28 -14 45 -7 18 -20 48 -27 67 -7 19 -33
64 -57 99 -24 36 -49 78 -54 95 -23 71 -66 146 -83 146 -5 0 -17 -7 -27 -17
-13 -12 -18 -30 -18 -70 0 -50 -2 -55 -31 -71 -54 -30 -79 -53 -93 -87 -9 -20
-32 -45 -58 -61 -52 -34 -68 -52 -68 -78 0 -29 47 -93 86 -116 37 -24 64 -20
128 16 23 13 45 24 50 24 4 0 5 -39 1 -87 -13 -161 -9 -333 10 -427 17 -84 17
-97 1 -240 -38 -343 -41 -357 -102 -392 -24 -14 -46 -34 -49 -44 -10 -33 -38
-34 -65 -2 -52 60 -67 79 -112 147 -97 146 -158 292 -180 430 -15 94 -21 346
-9 358 6 6 11 30 11 52 0 109 110 363 215 495 83 104 302 290 341 290 7 0 14
3 16 8 4 10 78 44 163 75 141 53 358 77 495 57z m-666 -432 c4 -23 19 -55 34
-72 29 -34 67 -106 104 -201 25 -65 30 -73 67 -110 26 -25 115 -75 134 -75 7
0 25 -7 41 -15 19 -10 84 -19 200 -25 254 -16 346 -27 391 -49 83 -40 118
-104 109 -203 -7 -75 16 -199 52 -285 8 -17 14 -36 14 -41 0 -5 27 -40 60 -76
l60 -66 0 -145 0 -145 -40 0 c-44 0 -58 26 -17 32 18 2 23 10 25 48 10 127
-15 182 -149 326 -43 46 -81 94 -85 106 -7 23 -8 24 -59 83 -19 22 -35 43 -35
46 0 4 -24 25 -52 47 -29 22 -73 58 -98 81 -25 22 -48 41 -51 41 -3 0 -17 9
-29 20 -27 23 -64 23 -67 0 -2 -9 14 -23 39 -35 48 -24 61 -45 26 -45 -12 0
-52 -16 -88 -35 -160 -85 -205 -102 -298 -111 -53 -6 -62 -4 -62 9 0 9 5 19
10 22 6 3 10 13 10 22 0 8 7 30 16 49 22 46 13 68 -20 52 -17 -7 -28 -22 -32
-45 -3 -18 -10 -36 -15 -38 -4 -3 -11 -27 -15 -53 -3 -26 -11 -56 -17 -67 -6
-11 -14 -96 -19 -190 -15 -295 -21 -345 -42 -361 -22 -16 -64 -18 -85 -5 -17
11 -6 31 16 31 9 0 27 10 40 22 23 21 23 22 23 291 0 232 -2 276 -17 309 -32
72 -38 47 -38 -144 -1 -149 -4 -191 -18 -227 -9 -24 -17 -54 -17 -66 0 -12 -7
-28 -15 -35 -8 -7 -15 -27 -15 -45 0 -20 -6 -35 -15 -39 -9 -3 -15 -18 -15
-36 0 -41 -39 -80 -80 -80 -23 0 -30 4 -30 20 0 10 10 25 22 31 31 16 52 39
70 74 51 97 101 579 66 643 -14 26 -17 178 -8 382 6 150 -11 173 -95 129 -62
-32 -93 -39 -120 -27 -27 12 -56 69 -38 75 32 11 92 65 110 99 12 25 36 48 63
63 23 13 50 37 59 52 9 16 19 29 22 29 4 0 9 -19 13 -42z m1146 -772 c0 -13 9
-46 21 -74 21 -51 74 -99 133 -122 35 -13 24 -30 -19 -30 -43 0 -113 52 -137
101 -31 62 -37 172 -8 154 5 -3 10 -17 10 -29z m-386 -91 c66 -132 124 -205
232 -291 l39 -31 -1 -124 c-2 -108 -4 -125 -20 -134 -10 -5 -29 -21 -43 -35
l-26 -25 -383 -5 c-251 -3 -387 -2 -392 5 -5 6 -4 39 1 75 5 36 14 144 20 240
5 96 14 185 18 196 8 17 21 23 73 28 127 14 180 33 298 106 56 34 72 39 115
37 47 -2 50 -4 69 -42z m113 -42 c62 -76 123 -161 123 -172 0 -5 7 -12 16 -15
8 -3 12 -10 9 -16 -13 -22 -175 153 -175 189 0 5 -7 14 -15 21 -16 14 -20 40
-6 40 5 0 27 -21 48 -47z m230 -280 c43 -48 48 -71 29 -118 -9 -21 -16 -46
-16 -57 0 -11 -7 -34 -14 -51 -8 -18 -16 -45 -18 -62 -2 -24 -8 -31 -30 -33
-29 -3 -37 11 -15 25 40 26 64 240 33 288 -17 25 -21 45 -9 45 3 0 21 -17 40
-37z m-1046 -186 c-8 -58 -20 -77 -53 -77 -25 0 -32 19 -14 39 9 10 16 25 16
35 0 22 42 78 51 69 5 -5 4 -34 0 -66z m1139 26 c0 -10 3 -34 6 -55 6 -33 4
-38 -24 -52 -16 -8 -32 -25 -35 -37 -3 -11 -10 -18 -16 -14 -16 9 -13 44 4 61
8 9 15 26 15 39 0 37 18 75 35 75 8 0 15 -8 15 -17z"/>
<path d="M635 1676 c-5 -2 -37 -9 -70 -16 -86 -17 -205 -50 -242 -66 -17 -8
-36 -14 -42 -14 -17 0 -33 -39 -25 -63 10 -32 54 -87 70 -87 7 0 32 13 56 29
70 47 127 74 144 67 13 -5 14 -15 9 -49 -7 -40 -11 -52 -48 -125 -9 -19 -17
-41 -17 -50 0 -9 -7 -26 -15 -36 -8 -11 -15 -26 -15 -33 0 -7 -14 -44 -31 -81
-35 -74 -56 -122 -75 -167 -21 -52 -46 -109 -60 -138 -8 -16 -14 -34 -14 -42
0 -7 -7 -18 -15 -25 -8 -7 -15 -21 -15 -31 0 -9 -7 -24 -15 -33 -33 -33 -5
-92 67 -142 47 -33 68 -26 68 20 0 20 7 57 15 83 8 26 22 73 31 103 9 30 22
67 30 82 8 14 14 35 14 45 0 11 7 28 15 39 8 10 15 26 15 34 0 8 6 27 14 41 7
14 16 37 20 52 5 23 11 27 45 27 38 0 71 -23 71 -49 0 -8 7 -34 14 -60 8 -25
22 -71 31 -101 51 -181 93 -278 137 -322 34 -34 55 -35 110 -4 50 28 63 69 31
95 -19 16 -66 76 -90 116 -38 62 -143 285 -143 303 0 17 9 22 58 32 90 18 195
74 247 132 143 159 110 338 -75 413 -33 13 -78 19 -170 21 -69 2 -129 2 -135
0z m335 -119 c55 -34 69 -56 70 -113 0 -41 -6 -59 -29 -91 -50 -69 -142 -124
-228 -138 -24 -4 -45 -11 -49 -16 -3 -5 -43 -9 -90 -9 -95 0 -102 7 -61 63 13
18 37 57 52 87 34 66 49 94 77 140 12 19 24 49 27 65 6 27 11 31 51 35 72 8
142 -1 180 -23z"/>
<path d="M6224 1670 c-199 -42 -363 -242 -283 -344 28 -35 71 -33 79 4 16 72
108 192 178 233 28 16 32 16 47 1 9 -9 14 -19 13 -23 -14 -25 -52 -111 -58
-131 -5 -14 -18 -50 -30 -80 -12 -30 -26 -71 -32 -90 -5 -19 -14 -39 -19 -44
-5 -6 -9 -20 -9 -32 0 -12 -7 -27 -15 -34 -8 -7 -15 -21 -15 -31 0 -18 -18
-66 -46 -122 -8 -16 -14 -35 -14 -43 0 -12 -33 -89 -73 -172 -23 -49 61 -146
160 -184 98 -37 270 -20 384 37 39 20 135 89 165 119 35 36 108 139 128 181
10 22 25 52 32 67 8 14 14 36 14 48 0 11 7 34 15 51 12 21 16 61 16 150 0 115
-1 122 -33 187 -40 82 -133 178 -203 210 -27 13 -59 28 -70 34 -25 14 -276 20
-331 8z m320 -75 c15 -8 32 -15 36 -15 21 0 92 -57 120 -96 49 -68 62 -153 45
-277 -8 -55 -19 -105 -24 -110 -6 -6 -11 -18 -11 -27 0 -9 -11 -37 -25 -61
-13 -24 -29 -54 -34 -65 -27 -62 -232 -234 -278 -234 -10 0 -27 -6 -38 -14
-27 -18 -192 -31 -227 -17 -22 8 -28 17 -28 40 0 15 7 34 15 41 8 7 15 24 15
39 0 14 7 35 15 45 8 11 15 28 15 37 0 10 6 30 14 46 7 15 21 45 30 66 9 20
22 52 30 70 8 17 17 39 20 47 3 8 10 22 15 30 5 8 37 74 72 145 35 72 76 148
91 169 15 21 28 43 28 47 0 11 -74 49 -95 49 -19 0 -56 41 -48 52 9 15 216 9
247 -7z"/>
<path d="M7783 1317 c-10 -12 -29 -42 -41 -67 -23 -45 -33 -65 -52 -97 -6 -10
-13 -25 -16 -33 -3 -8 -19 -46 -35 -84 -16 -38 -29 -76 -29 -85 0 -9 -7 -25
-15 -35 -8 -11 -15 -31 -15 -45 0 -14 -7 -44 -15 -66 -33 -93 -9 -215 43 -215
22 0 61 34 62 53 0 16 125 173 194 246 132 138 148 151 163 140 19 -16 16 -42
-7 -72 -11 -14 -20 -33 -20 -44 0 -10 -7 -27 -15 -37 -10 -14 -15 -45 -15
-102 l0 -83 38 -31 c32 -28 43 -31 84 -27 58 5 131 49 121 73 -5 13 -14 15
-44 10 -32 -5 -40 -3 -49 14 -14 25 -3 147 16 177 8 12 14 28 14 36 0 8 11 34
25 58 13 24 29 53 34 64 5 11 25 38 45 60 20 22 36 44 36 48 0 16 -49 56 -76
63 -36 9 -89 -11 -140 -52 -66 -53 -189 -180 -262 -271 -48 -59 -73 -83 -89
-83 -14 0 -23 6 -23 15 0 8 4 15 8 15 4 0 13 12 20 28 6 15 41 72 77 127 36
55 69 110 74 122 6 11 15 24 20 28 30 18 -15 112 -75 158 -20 15 -23 15 -41
-6z"/>
<path d="M8645 1322 c-16 -8 -43 -22 -60 -30 -62 -30 -168 -150 -206 -232 -47
-101 -52 -122 -53 -213 -1 -98 10 -129 58 -170 34 -29 113 -67 139 -67 70 0
288 166 287 219 0 20 -3 22 -27 17 -16 -4 -39 -19 -53 -34 -36 -39 -109 -95
-152 -117 -30 -15 -41 -17 -62 -7 -33 15 -57 52 -63 100 -5 37 -4 38 38 56
159 67 261 142 298 219 11 23 28 71 37 106 19 78 13 94 -56 139 -54 35 -80 38
-125 14z m95 -127 c10 -12 9 -20 -4 -40 -9 -13 -16 -29 -16 -36 0 -12 -50 -80
-85 -115 -32 -32 -142 -114 -154 -114 -18 0 -12 42 13 93 36 74 111 164 163
197 53 34 65 36 83 15z"/>
<path d="M1425 1318 c-11 -6 -27 -15 -35 -20 -8 -4 -22 -11 -30 -15 -15 -7
-66 -50 -103 -88 -67 -68 -136 -220 -152 -336 -9 -64 18 -156 59 -201 38 -41
98 -73 124 -65 140 42 257 142 320 271 34 71 56 200 46 270 -8 47 -38 86 -68
86 -18 0 -76 55 -76 72 0 7 -54 39 -62 37 -2 0 -12 -5 -23 -11z m131 -154 c17
-68 -10 -240 -47 -304 -5 -8 -14 -25 -19 -38 -25 -58 -159 -162 -209 -162 -32
0 -54 52 -48 114 11 126 65 234 169 339 67 67 82 77 112 77 30 0 37 -4 42 -26z"/>
<path d="M2565 1319 c-32 -16 -83 -91 -138 -204 -50 -101 -67 -143 -67 -163 0
-9 -7 -26 -15 -36 -8 -11 -15 -36 -15 -55 0 -20 -5 -53 -11 -75 -6 -21 -8 -48
-5 -60 6 -25 50 -76 64 -76 5 0 15 -7 22 -15 7 -8 29 -15 49 -15 29 0 45 9 85
48 27 26 69 77 93 114 25 38 49 68 53 68 20 0 20 -42 0 -84 -11 -25 -20 -49
-20 -55 0 -5 -6 -22 -14 -38 -8 -15 -31 -62 -51 -103 -45 -93 -50 -101 -104
-175 -47 -64 -103 -120 -136 -135 -11 -6 -27 -14 -35 -19 -66 -37 -82 -42
-125 -36 -24 4 -50 13 -56 21 -16 19 -68 18 -76 -1 -11 -29 75 -76 170 -94
172 -32 362 124 500 411 26 53 47 101 47 107 0 5 6 22 14 38 19 38 32 79 76
228 21 72 44 130 94 236 20 42 34 83 31 90 -7 19 -53 39 -90 39 -34 0 -65 -25
-65 -53 0 -9 -4 -18 -9 -21 -5 -3 -39 -66 -76 -138 -67 -132 -192 -311 -245
-350 -35 -26 -60 -15 -60 26 1 17 7 42 15 56 8 14 14 35 15 47 0 22 17 67 46
126 8 16 14 34 14 41 0 34 122 236 142 236 5 0 8 10 6 22 -2 14 -16 29 -38 40
-40 19 -57 21 -85 7z"/>
<path d="M1824 1298 c-16 -26 13 -205 45 -283 43 -103 61 -148 61 -155 0 -13
-146 -136 -222 -187 -52 -34 -68 -50 -68 -68 0 -25 30 -42 52 -29 34 21 177
136 202 163 29 30 76 43 76 20 0 -21 62 -135 83 -151 29 -23 42 -22 77 4 35
26 38 55 10 91 -11 14 -20 32 -20 40 0 9 -4 18 -9 21 -15 10 -51 91 -51 116 0
15 16 39 43 65 38 36 143 169 174 220 51 85 54 95 36 120 -12 17 -28 24 -49
25 -32 0 -32 1 -74 -90 -29 -63 -68 -131 -85 -150 -8 -9 -15 -21 -15 -26 -1
-21 -48 -66 -66 -62 -16 3 -21 17 -28 78 -5 41 -8 95 -8 120 2 80 -2 85 -73
109 -76 24 -81 25 -91 9z"/>
<path d="M7200 1295 c-7 -8 -19 -15 -26 -15 -18 0 -122 -104 -160 -161 -95
-141 -139 -319 -100 -411 18 -42 59 -78 90 -78 23 0 78 30 115 64 31 28 101
122 101 136 0 13 48 36 57 26 4 -3 -1 -20 -10 -35 -11 -19 -17 -51 -17 -90 0
-49 4 -64 22 -81 12 -11 30 -20 39 -20 10 0 23 -2 31 -5 7 -2 24 4 38 15 25
19 25 19 7 48 -20 35 -24 151 -5 185 6 12 15 38 19 57 13 63 69 200 81 200 15
0 8 57 -9 72 -33 29 -60 31 -82 7 -12 -13 -21 -28 -21 -35 0 -7 -13 -35 -28
-61 -16 -26 -31 -55 -35 -63 -4 -8 -13 -24 -19 -35 -137 -218 -218 -313 -257
-300 -26 8 -27 37 -4 119 39 138 165 299 271 346 23 10 42 24 42 31 0 18 -90
99 -110 99 -10 0 -23 -7 -30 -15z"/>
</g>
</svg>
